<svg version="1" xmlns="http://www.w3.org/2000/svg" width="1322.667" height="1322.667" viewBox="0 0 992.000000 992.000000"><path d="M220.4 52.8c-8.7 6.4-47 49.4-60.7 68.3-.9 1.3-4.2 5.8-7.3 9.9-3 4.1-6.5 9.1-7.7 11-1.1 1.9-2.4 3.7-2.8 4-.4.3-1.5 1.9-2.5 3.6-1.1 1.7-4.3 7.1-7.3 12-16.5 27.3-23.3 44.7-27.6 70.6-.3 1.6-.8 4.3-1.1 6-.3 1.8-.7 4.9-.9 6.8-1 7.8-3.2 12.1-7.5 14.2-5.1 2.5-13.8 0-21-5.9-2.8-2.2-11-10.4-13-13-.8-1-2.6-3.2-4-4.9-1.4-1.7-3.4-4.3-4.5-5.8-1.1-1.6-2.5-3.3-3-4-2.8-3.2-8.5-12.7-14-23.4-3-5.9-4.3-8.9-7.5-16.7-.5-1.1-1.1-3.6-1.4-5.5-.3-1.9-.8-4.6-1.1-5.9-.2-1.3-.7-6.7-1-12-.3-5.3-.7-11.1-.8-12.9-.2-1.7.1-3.2.6-3.2.4 0 .5-.5.1-1.2-.4-.6-.9-7.2-1-14.7-.4-16.9-1.2-30.4-2-35.6-1.2-7.6-8.1-13.6-12-10.4-3.2 2.7-4.3 7.9-4.7 22.6-.1 5.1-.4 9.3-.7 9.3-.4 0-.6 1-.6 2.2-.1 1.3-.3 4.5-.7 7.3-.3 2.7-1 7.9-1.4 11.5-1 7.9-.9 40.3 0 44.5.4 1.6 1 5 1.3 7.5.3 2.4.8 4.9 1.2 5.5.4.5.8 2.1 1 3.4.2 1.3 1 3.7 1.8 5.3.8 1.5 1.2 2.8 1 2.8-1 0 4.7 12.7 8.8 19.5 3.7 6.1 3.2 5.4 10.8 14.5 6.3 7.6 10 11.7 21.8 24 18.3 19 26.6 28 32.5 35.1 3 3.5 16.5 25.4 16.5 26.6 0 .6.3 1.3.8 1.5.7.3 8.2 12.5 8.2 13.4 0 .2 1.1 2.1 2.4 4.2 2.5 4.1 14 24.5 19.9 35.5 3.5 6.5 3.9 8.7 2.2 12.8-1.5 3.9-10.1 4.5-19.2 1.5-8.2-2.7-26.9-15-39.8-26.1-22.5-19.4-38.6-40-51.3-66-2.5-4.9-4.5-9.4-4.6-10-.1-.5-1.4-4.8-2.9-9.5s-3.2-10.2-3.9-12.3c-2-6.5-4.5-7.1-7.3-1.7-1.5 2.9-1.5 18.8 0 25.5.4 1.6.8 3.9.9 5 .2 1.1.6 2.7.8 3.5.5 1.6 2.7 10.3 3.3 13.2.2.9.8 2.5 1.3 3.5.6 1 1 2.1 1.1 2.5.2 1.7.6 2.9 2 6.3 9.3 22.9 27 45.3 49.1 62.3 3 2.3 6.1 4.7 6.7 5.2 6.6 5.4 32.2 19.3 43.3 23.5 4.7 1.8 7.5 2.9 11.3 4.4 5 2 9.3 3.6 10.2 3.7.6.1 5.7 1.9 11.5 3.9s11 3.8 11.5 3.9c.6.2 1.7.5 2.5.8 7.6 2.8 11.2 4 12.3 4.2.6.2 2.5.8 4 1.4 1.6.7 3.4 1.2 4.1 1.2.7 0 1.6.3 2 .7.3.4 1.2.8 1.9.9 1.4.2 17.5 5.8 22.7 7.9 3.3 1.2 6.9 2.6 8 3 .3.1 1.4.5 2.5 1 10.9 4.4 31.8 11.9 36 12.9.6.2 1.9.6 3 1 3.1 1.2 6.5 2.3 12.5 3.9 19.3 5.4 35.5 10 36.4 10.2.6.1 1.8.5 2.6.8.8.3 6.9 2.3 13.5 4.5 18.2 6.1 20.8 7.1 43.8 18.1 7 3.4 12.9 6.1 13 6.1.2 0 .3-1.2.4-2.8 0-1.5.1-3.2.2-3.8.1-.7 12.8-1 40.1-1l39.9.1-2.2-2.1c-1.2-1.2-2.4-2.1-2.7-2.1-.3.1-1.4-.4-2.6-1-1.2-.7-5.7-2.4-10-3.8-8.8-2.9-30.4-13.3-30.4-14.6 0-.5-.4-.9-1-.9-.5 0-4.5-2.4-8.7-5.3-4.3-3-12.8-8.7-18.8-12.8-6.1-4.1-12.9-8.8-15-10.4-5.9-4.4-17.1-15.4-20.3-20-1.5-2.2-3-4.2-3.3-4.5-.4-.3-2.4-3.8-4.6-7.8-2.2-4.1-4.8-8.2-5.7-9.3-.9-1.1-1.6-2.3-1.6-2.8 0-1.2-4.5-3-5.7-2.3-3.7 2.4-3.6 8.6.3 19.2 1.3 3.5 2.1 6.6 1.9 6.8-.7.8-19.1-10.3-22.2-13.4-.8-.8-1.8-1.4-2.1-1.4-1.1 0-15.3-13.9-19.2-18.9-1.9-2.4-4-4.8-4.5-5.5-5.6-6.1-17.3-31.4-18.9-40.8-.3-1.5-.7-3.1-.9-3.5-.5-.8-1.7-10.2-2.3-18.3-1-12.7-1.3-15.8-1.9-19.5-.9-5.2-3.5-9.5-5.7-9.5-2.4 0-5.9 5.1-7.9 11.3-2.3 7.4-1.7 31.1 1.2 47.2 1.5 8.1 1.5 8.1 4 14.3.5 1.3.9 3.1.9 4.1 0 1 .7 2.4 1.5 3.1.9.7 1.4 1.5 1.1 1.7-.7.7 5 10.9 14 25.3 4.7 7.4 9.1 14.4 9.7 15.5.7 1.1 1.4 2.2 1.7 2.5.3.3 1.6 2.5 2.9 4.9l2.3 4.3-2.8-.6c-1.6-.3-4.5-.8-6.4-1.1-5.5-.9-17.3-4.5-19.7-6.1-1.3-.8-2.3-1.2-2.3-.8 0 1.4-24.1-12.6-27.8-16.3-.7-.7-1.7-1.3-2.2-1.3-1.5 0-25.4-24.3-29-29.5-3.5-5-5.5-7.7-7.7-10-.7-.8-1.3-1.8-1.3-2.4 0-.5-.6-1.6-1.3-2.3-4.1-4-23.6-40.6-25.3-47.2-.3-1.4-.9-2.6-1.3-2.6s-.7-.8-.8-1.8c-.1-.9-1-5.1-2.1-9.2-2.4-9.2-2.2-20.7.4-26.5 1-2.2 1.8-4.2 1.9-4.5.5-2.8 15.5-19 17.6-19 .4 0 1.4-.6 2.1-1.3 2.3-2.3 12.9-8.3 30.3-17.1 19.6-10 24.1-12.4 26.9-14.9 1.1-.9 2.3-1.7 2.7-1.7 3.1 0 33.5-28.3 42.4-39.5 1.7-2.1 3.5-4.3 4-4.9.6-.6 3.7-4.7 7-9.1 3.3-4.4 6.2-8.2 6.5-8.5.3-.3 2.4-3.4 4.7-7 2.4-3.6 4.6-7 5.1-7.5 1-1.3 6.2-11.3 6.2-12 0-1.2-4.3-.4-6.8 1.2-4.4 2.9-5.2 3.5-19.3 16.5-11.1 10.1-16.4 14.7-23.7 20.3-.7.5-1.8 1.5-2.5 2-4.1 3.6-17.9 13.5-18.7 13.5-.6 0-1 .4-1 1 0 .5-.5 1-1.2 1-.6 0-2 .7-3 1.7-1 .9-2.7 2.1-3.7 2.7-1.1.6-5.6 3.2-10 5.8-4.4 2.7-8.5 4.8-9.1 4.8-.5 0-1 .4-1 1 0 .5-.6 1-1.3 1-.7 0-3.6 1.1-6.4 2.5-2.8 1.3-6.4 2.7-8 3.1-1.5.4-3.4 1.1-4 1.7-.7.5-1.3.7-1.3.4 0-.3-2 .1-4.5.8-5.8 1.8-6.4.6-2.7-4.9 4.1-6 5.6-10.9 4.2-13.6-.6-1.1-1.5-2-2-2s-4.3 3.3-8.4 7.4c-13.3 13-28.1 25.4-29.2 24.3-.7-.7 2.6-17.8 3.7-19.3.5-.6.7-1.3.4-1.6-1-.9 8.8-28.3 10.6-29.8.3-.3 1.2-2.2 1.8-4.3.7-2 1.7-3.7 2.3-3.7.6 0 .9-.2.6-.5-.3-.3 1.4-4.3 3.8-8.7 2.4-4.5 4.4-8.5 4.4-9 0-.4.3-.8.8-.8.4 0 1.2-1 1.7-2.3 1.5-3.1 5.9-11.1 6.5-11.7.8-.8 2.9-4.3 3.7-6 .6-1.5 4.2-7.3 9.9-16 1.6-2.5 3.3-5.3 3.9-6.2.5-.9 2.6-4.3 4.6-7.5 11.2-18 19.7-32.5 22.2-37.6 4.3-8.8 2.3-11.1-4.9-5.9zM764.5 52.5c.3 2.9 4.4 11.6 6 12.7.7.5.7.8 0 .8s-.7.3 0 .8c.6.4 1.5 1.6 2.1 2.7 3.1 5.8 5 9.1 5.4 9.5 1.2 1.1 9 14.2 9 15.1 0 .5.5.9 1 .9.6 0 1 .7 1 1.5s.3 1.5.8 1.5c.4 0 1.2.9 1.7 2 .6 1 5.5 9.2 11 18.2 11.5 18.7 12.5 20.5 16.1 27.3 1.5 2.7 3.7 6.7 5 8.7 1.4 2.1 2.2 3.8 1.9 3.8-.3 0 .6 1.8 2 4s2.5 4.2 2.5 4.5c0 .2 1.5 3.5 3.3 7.2 4.8 9.9 11 27.9 12.1 35.3.1.8.5 3.1.9 5 1.1 5.7 1.6 10 1.1 10-.7 0-5.7-3.3-7.5-5-.9-.8-4.1-3.6-7-6.2-3-2.5-9.1-8.3-13.7-12.7-8.3-8.1-11.1-9.6-11.4-6.4 0 1-.2 2.5-.3 3.3-.2 1.7 2.9 8.2 5.8 12.4 3.7 5.2-.9 4.9-16.3-.8-2.5-1-6-2.2-7.7-2.8-1.8-.6-3.3-1.5-3.3-2 0-.4-.5-.8-1.2-.8-2.9 0-33.5-19.2-39.3-24.8-.8-.6-1.6-1.2-1.9-1.2-.3 0-1.4-.7-2.3-1.5-1-.8-4.5-3.6-7.9-6.2-6.7-5.3-16.3-13.7-22.8-19.7-3.4-3.2-7.2-6.6-17-15.1-3.3-2.9-9.6-4.7-9.6-2.8 0 1.8 10.7 19.4 12.3 20.1.4.2.7.8.7 1.3s2.3 3.9 5 7.4c2.8 3.5 5 6.9 5 7.4s.3 1.1.8 1.3c.6.3 5.1 5.6 11.7 13.8 2.6 3.2 23.1 23.7 27 27 1.7 1.4 4.6 3.6 6.5 5 1.9 1.3 3.7 2.7 4 3 .5.5 4.4 3.1 12.8 8.4 2.3 1.5 5.3 3.1 6.5 3.6 1.2.6 2.9 1.4 3.7 1.9.8.5 7.6 4 15 7.7s17.2 9.1 21.8 12c8.3 5.4 19.5 15.7 21.3 19.8.6 1.1 1.8 3.7 2.9 5.6 1 1.9 1.6 3.8 1.3 4.2-.2.5-.1 1.4.4 2 1.2 2.1 1.1 12.9-.2 19.3-2.5 11.8-9 27.4-19.1 45.5-6.9 12.5-22.2 34.8-24.6 35.8-.5.2-.8.8-.8 1.4 0 .9-17.7 18.6-24.3 24.3-5.6 4.9-28.3 18-33.2 19.1-.5.2-4.2 1.4-8.1 2.8-6.4 2.2-10.6 3.2-17.1 4.1-4 .6-3.9.4 11.4-23.7 5.1-8 9.3-15.1 9.3-15.7 0-.6.4-1.1.8-1.1s1.3-1.2 1.9-2.8c.7-1.5 2.7-6.2 4.7-10.5 1.9-4.3 3.5-8 3.5-8.2.1-.3.1-.6.2-.8 0-.1.2-.9.4-1.7.1-.8.7-3.3 1.3-5.5.6-2.2 1.4-6.3 1.8-9 .4-2.8.8-6.4 1.1-8 1-8 .6-33.1-.7-36-.7-1.7-1.4-3.6-1.6-4.4-.4-2.2-4.6-6.1-6.5-6.1-3.9 0-5.7 7.3-7.3 28.5-.7 8.1-1.8 16.7-2.6 19.6-.5 1.6-.7 2.9-.5 2.9.2 0-.7 2.9-2 6.5s-2.2 6.5-2 6.5c.7 0-9.1 18.5-12.8 24.3-7.4 11.3-17.7 21.7-31.7 31.9-2.5 1.8-5.4 3.8-6.5 4.4-4.6 2.5-7 3.9-7.5 4.5-.3.4-1.6 1-2.9 1.4-2.1.6-2.3.5-1.6-1.1 2.1-5.2 5.2-16 5-17.3-.2-.9-.4-2.6-.4-3.9-.2-5.5-7.6-3.9-10.2 2.1-.7 1.6-1.7 3.4-2.3 4.1-.6.6-2.4 3.6-4 6.5-1.6 3-3.6 6.3-4.5 7.3-.9 1-1.5 2.1-1.4 2.3.3.6-16.1 17.2-19.7 20-1.4 1.1-7.2 5.1-13 9-5.8 3.8-10.9 7.4-11.5 7.8-3.7 2.9-15.8 10.7-16.6 10.7-.5 0-.9.4-.9 1 0 .5-.7 1-1.5 1s-1.5.3-1.5.7c0 .5-1 1.3-2.3 1.9-6 3-11.2 6-11.5 6.6-.2.5-1.1.8-2.1.8-.9 0-2.1.4-2.7.9-.5.5-2.7 1.4-4.9 2.1-8 2.5-24.3 9.1-25.3 10.3-.8.9 7.7 1.2 38.6 1.1 21.9-.1 40.4 0 41.3.2 1.1.3 1.6 1.5 1.4 3.9-.1 1.9.1 3.5.5 3.5.3 0 5.3-2.4 11.1-5.3 10-5 17.9-8.7 24.4-11.3 6.6-2.6 23.1-8.6 24.5-8.9.8-.2 4.2-1.2 7.5-2.3 5.2-1.7 12.7-4 16-4.8 1.3-.3 17.9-5 27-7.6 6.8-1.9 17.5-5.4 20.5-6.5.8-.4 1.7-.7 2-.8 2.2-.6 7.3-2.4 18.5-6.7 7.2-2.8 13.5-5.1 14-5.2.6-.1 1.5-.4 2-.7 1.7-1 9-3.3 9.8-3.1.4.1.7-.2.7-.6 0-.5.6-.9 1.3-.9.7 0 5.3-1.4 10.2-3.2 5-1.8 9.5-3.4 10-3.6 2-.5 2.5-.7 8.9-3 3.5-1.3 6.7-2.1 7-1.7.3.3.6 0 .6-.6 0-.7.3-1.1.8-1 .9.2 9-2.1 11.1-3.2.9-.4 3.9-1.6 6.6-2.5 2.8-.9 5.7-1.9 6.5-2.2.8-.3 2-.7 2.5-.9.6-.1 4.2-1.5 8-2.9 3.9-1.4 8.3-3 9.8-3.5 7.9-2.5 25.9-11.5 35.2-17.5 3.9-2.5 7.8-4.8 8.8-5.1.9-.4 1.7-1 1.7-1.5s.5-.9 1-.9c.6 0 1.8-.8 2.8-1.8 1-.9 3.1-2.6 4.6-3.7 11.1-7.8 28.5-26.6 37.4-40.3 3.7-5.7 9.4-16.8 11.2-21.7.4-1.1 1.5-3.7 2.4-5.8.9-2.1 1.6-4.4 1.6-5.1 0-.7.9-4.1 1.9-7.4 1.1-3.4 2.2-7.8 2.6-10 .3-2.1.8-4.9 1.1-6.2.4-1.4.7-7.5.8-13.7.1-10.3-.1-11.4-2.1-13.4-1.9-1.9-2.3-2-3.6-.8-1.2 1.2-2.4 3.8-3.2 6.9-.1.3-.4 1.2-.7 2-.3.8-1.8 5.5-3.3 10.5-3 9.7-11.4 27.7-16.4 35-1.7 2.5-3.1 5-3.1 5.5 0 .4-.3 1-.8 1.2-.4.1-2.5 2.8-4.6 5.8-10.5 14.8-29 33.4-43.6 43.8-3.6 2.5-6.7 4.9-7 5.2-1.1 1.3-13.9 8.8-19 11.2-6.1 2.9-16.1 4.2-19.6 2.6-2.4-1.1-4.6-5.3-4-7.8.5-2.6 1.8-5.3 6.1-13 2.3-4.1 5.4-9.7 6.9-12.5 6.1-10.9 19.1-33.4 23.2-40.1 2.4-3.9 4.4-7.6 4.4-8.2 0-.5.3-1.2.8-1.4.4-.2 2.4-2.9 4.5-6.1 4.6-7.1 6.7-9.6 19.4-23.6 1.8-2 3.3-3.9 3.3-4.4 0-.4.7-.7 1.5-.7s1.5-.4 1.5-.8 4.5-5.5 10.1-11.2c5.6-5.8 12.9-13.6 16.3-17.4 3.3-3.8 6.8-7.6 7.7-8.6 3.2-3.4 10.8-14.7 13.8-20.5 3.2-6.2 9-22.2 9.7-26.5.2-1.4.6-3.6.9-5 2.8-12.8 2.8-40.6 0-61-.9-6.2-1.3-10.2-1.9-19-1.2-16.1-1.7-19.6-3.5-22-2.5-3.4-5.3-3.6-8.8-.6-4.9 4.1-5.9 11.1-6.7 45.4-.2 7.9-.6 14.5-.9 14.8-.3.3-.1 1.8.3 3.4.4 1.6.6 3.1.3 3.4-.3.3-.7 4.5-.9 9.3-.1 4.8-.5 9.9-.7 11.3-.3 1.4-.8 4.3-1.2 6.5-1.4 7.7-10 26.3-16.7 36.2-1.5 2.3-2.8 4.4-2.8 4.8 0 .4-.6 1.3-1.2 2-.7.8-4.2 5.4-7.8 10.4-3.6 4.9-7.1 9-7.7 9-.7.1-1.3.5-1.3 1s-1.2 2.2-2.7 3.8c-9.3 9.7-19.7 14.9-26.2 13.1-6.7-1.9-8.3-5.2-10.5-21.3-.3-2.2-.8-5.1-1.1-6.5-.3-1.4-.7-4-1-5.9-.2-1.8-.7-4.1-1-5.1-.7-2.2-1.6-6-1.8-8-.3-1.8-2.5-8.7-3.7-11.5-.5-1.1-1.9-4.5-3.2-7.5-6.1-14.9-17.6-34.8-32.9-57-9.3-13.5-29.2-38.4-43.9-55.1-23.9-27-36.4-37.3-35.5-29.4zM206.2 481.1c-1.2.5-2.2.6-2.2.3 0-.6-2.3 1.2-6 4.9s-5.4 7.9-4.6 12c1.3 7.1 13.9 28.8 26.4 45.7 4.9 6.5 16.8 21.6 18.2 23 .3.3 3.9 4.3 8 9 17.6 20 42.5 42 47.4 42 .8 0 1.7.7 2 1.6.4.9.9 1.4 1.2 1.1.3-.3 2.2.3 4.2 1.5 13.1 7.3 32.3 12.1 49 12.1h7.2l.1 7.6c0 4.2.2 8.5.4 9.6.2 1.1.6 4.1.9 6.7 1.1 9.5 8.4 31.9 24.8 76.3 1.6 4.4 3.3 9.1 3.8 10.5.4 1.4 2.3 6.3 4 11 1.8 4.7 3.5 9.5 3.7 10.8.3 1.2.8 2.4 1.2 2.7.4.2.7-55.2.7-123.1V523h-4.7c-2.6 0-5.1.4-5.4 1-.3.5-.2 1 .2 1 1.8 0 5.6 9.6 6.7 17 .3 1.9.8 4.7 1.1 6.2.3 1.6.3 2.8-.1 2.8-.3 0-2.6-2-5.2-4.4-6.9-6.4-10.1-9.3-15.8-14.2-7.3-6.4-19.4-15.5-19.4-14.7 0 .3-.8-.1-1.7-1-2.8-2.5-17.2-9.3-24.8-11.7-3.8-1.3-7.7-2.5-8.5-2.8-.8-.2-2.6-.6-4-.8-1.4-.2-4.5-.8-7-1.3-7.2-1.6-10.5-2-26.5-3.6-11.3-1.2-14.3-1.6-21.5-2.9-13.5-2.6-15.6-3.2-34.6-10-7.6-2.7-15.7-3.8-19.2-2.5zM775.8 481.1c-1.6.4-2.8.5-2.8.2s-.7 0-1.5.7-1.5.9-1.5.5-.7-.2-1.5.5-1.5 1-1.5.7c0-.3-3 .7-6.7 2.2-3.8 1.5-7.1 2.9-7.5 2.9-.5.1-.9.2-1 .3-.3.1-.5.1-7.8 2-2.5.6-5.5 1.3-6.7 1.4-1.1.2-2.9.5-4 .9-2.8.8-12 2.1-21.8 3-15.8 1.5-18.5 1.9-28 3.8-2.7.5-6 1-7.2 1.1-1.3.1-2.3.5-2.3.8 0 .3-.6.6-1.2.7-6.3.4-33.8 12.1-33.8 14.4 0 .4-.5.8-1 .8-1 0-10.5 6.6-13.7 9.4-.6.6-3.7 3.3-6.9 6.1-3.1 2.7-8.4 7.6-11.8 10.7-5.8 5.5-9 7.3-8.1 4.5.4-1.1.9-4.2 2-10.9.5-3.5 4.6-13.1 5.9-14.1.6-.4-1.4-.6-4.4-.5l-5.5.3v122.7c0 67.4.3 122.4.7 122.2.3-.2 1.9-4.1 3.4-8.7 1.4-4.5 2.9-8.7 3.3-9.2.3-.6.6-1.2.7-1.5 0-.3.3-1.2.7-2 .3-.8 1.8-4.9 3.3-9 1.4-4.1 4-11.1 5.6-15.5 5-13.4 15.8-44.7 17.4-50.5 3.2-11.9 4.1-17.8 4.3-30.6l.1-7 9.3-.1c5-.1 10.6-.4 12.2-.8 1.7-.3 4.2-.8 5.6-1 3.3-.5 13.9-3.5 15.9-4.6.8-.4 4-1.7 7-2.9 11.5-4.6 24.6-12.9 34.4-21.9 29.8-27.4 60.3-65.6 74.1-92.9 5.9-11.8 6.4-14.8 3.4-20.1-4.2-7.5-13-11.2-21.1-9zM523 512.9c-1.4.9-3.3 2.3-4.3 3.2-1 .9-4.7 3.1-8.3 5-5.7 2.8-7.6 3.3-14.7 3.4-4.5.1-8.6-.1-9.2-.4-1.1-.6-1.5-.7-6-1.6-1.6-.3-5.4-2.1-8.2-4-6-4-6.5-4.1-6.2-1.8.1 1 .1 2.9 0 4.3l-.1 2.5-9.8-.3-9.9-.3.1 70c.1 38.4.4 70.3.8 70.7 1.2 1.1 96.8.8 98-.4.6-.6.9-2.9.6-5.1-.2-2.3 0-4.1.4-4.1s.5-.7.1-1.6c-.8-2.3-.9-22.4-.1-22.4.4 0 .5-.7.2-1.5-.9-2.2-1-54.5-.2-54.5.4 0 .5-.7.1-1.5-.9-2.4-.9-30.5 0-30.5.5 0 .5-.5.1-1.2-.4-.6-.7-4.9-.6-9.5V523H526.1l-.3-5.9-.3-5.9-2.5 1.7zM448.4 680.8l-2 .3.1 69.2c.1 38.1.3 69.7.4 70.3.1.7 3.3 1 9.6.9l9.5-.2.1 3.1c.2 3.1.2 7.3 0 11.2-.1 1.5-.9 2.3-2.6 2.6-1.4.3-2.8.1-3.1-.4-.3-.4-1-.6-1.5-.2-1.6 1-5.9 1.2-6.5.3-.2-.4-1.1-.6-1.9-.3-.8.3-9.2.7-18.7.7-16.7.2-17.3.3-17.1 2.2.1 1.1.4 5.4.8 9.5.3 4.1.7 9.3 1 11.5.2 2.2.6 6.2.9 9 .3 2.7.7 6.1 1 7.5.3 1.4.7 4.1 1 6 .8 5.5 4.3 18.1 6.2 22.5 1 2.2 1.7 4.3 1.6 4.7-.1.5.2.8.8.8.5 0 1 .6 1 1.4 0 1.6 7.5 11.4 10.1 13.4 1 .7 2.4 1.8 3.1 2.5 1.2 1.2 6.1 4 11.8 6.6 2.2 1 10.2 3.4 15.5 4.6 10.5 2.5 51.5 2.6 51.5.2 0-.4.6-.7 1.3-.6 1.3.3 9.1-1.7 12.2-3.1 2.9-1.3 6.9-2.4 7.8-2.2.4.1.7-.2.7-.7 0-.5.8-1.2 1.9-1.6 1-.3 2.9-1.5 4.2-2.6 1.3-1.2 3.3-2.9 4.4-3.8 3.2-2.5 7.1-8.1 10.9-15.3 2.8-5.5 5.2-12 4.6-13-.1-.2.4-1.7 1-3.3 1.3-3.3 1.8-5.2 2.6-10.5.3-1.9.7-4.6.9-5.9 1.3-7.5 2-14 3.1-27.8.3-4.5.7-9 .8-10 0-1.1-.6-1.9-1.9-1.9-1.1-.1-2.4-.3-3-.4-.5-.1-1.4-.1-2 0-3.2.7-5.6.6-6.1-.2-.3-.4-1-.6-1.5-.2-1.7 1-5.9 1.2-6.5.2-.3-.4-1-.6-1.5-.2-1.7 1-5.9 1.2-6.5.2-.3-.4-1-.6-1.5-.2-1.7 1-5.9 1.2-6.5.2-.3-.4-1-.6-1.5-.2-1.7 1-5.9 1.2-6.5.3-.3-.5-1.3-.5-2.2 0-3.4 1.7-4.2.2-4.2-8.3v-8.1h19.8l-.1-27.7c-.1-15.3.1-27.8.5-27.8s.5-.7.1-1.5c-.8-2.3-.9-30.5-.1-30.5.4 0 .5-.7.1-1.6-.9-2.4-.9-22.4 0-22.4.5 0 .5-.5.2-1.1-.4-.6-.6-7.1-.6-14.5.2-13.3.2-13.4-2.1-13.5-7.7-.2-93.7-.3-95.4-.1z"/></svg>